Coordinates
version=1
nRows=16
nColumns=36
inDegrees=yes

Units are S.I. units (second, meters, Newtons, ...)
If the header above contains a line with 'inDegrees', this indicates whether rotational values are in degrees (yes) or radians (no).

endheader
time	pelvis_tilt	pelvis_list	pelvis_rotation	pelvis_tx	pelvis_ty	pelvis_tz	hip_flexion_r	hip_adduction_r	hip_rotation_r	knee_angle_r	knee_angle_r_beta	ankle_angle_r	subtalar_angle_r	mtp_angle_r	hip_flexion_l	hip_adduction_l	hip_rotation_l	knee_angle_l	knee_angle_l_beta	ankle_angle_l	subtalar_angle_l	mtp_angle_l	lumbar_extension	lumbar_bending	lumbar_rotation	arm_flex_r	arm_add_r	arm_rot_r	elbow_flex_r	pro_sup_r	arm_flex_l	arm_add_l	arm_rot_l	elbow_flex_l	pro_sup_l
      3.48333330	     -1.38213693	      5.88491071	      5.63616132	     -0.13861290	      0.92439872	      0.14139107	      4.11233261	      0.87224245	      0.44434283	      2.18174082	      0.03807856	      6.60342931	     -0.50595555	     -7.49999987	     11.81292188	      1.43127368	      3.52960384	     14.59708735	      0.25476724	     -1.85257314	     -7.35075351	     -7.49999987	     -1.52193012	      0.32259617	      7.67771795	     49.63314256	     20.99640790	     73.63557948	    129.74995451	    101.12163907	     63.48151739	     26.25428614	     68.46551537	    120.49796297	     83.30373706
      3.50000000	     -1.37683916	      5.86290751	      5.71191280	     -0.13713749	      0.91936649	      0.14091369	      4.08639442	      0.88995161	      0.46021144	      2.05930653	      0.03594168	      6.53589773	     -0.44855348	     -7.49999987	     11.79013314	      1.40738258	      3.34666281	     14.65704570	      0.25581371	     -1.88710731	     -7.41763168	     -7.49999987	     -1.62976736	      0.32845961	      7.54463419	     49.54497939	     20.94727128	     73.72866182	    129.73443621	    101.12502587	     63.46930738	     26.32982166	     68.54445268	    120.54202171	     83.31365455
      3.51666670	     -1.29393189	      5.92536799	      5.65064858	     -0.13685693	      0.91912561	      0.14119121	      3.95836905	      0.83429966	      0.41132432	      2.02077774	      0.03526923	      6.41815664	     -0.43550597	     -7.49999987	     11.76926563	      1.45424411	      3.19830027	     14.94435691	      0.26082823	     -2.00243166	     -7.49601815	     -7.49999987	     -1.83308340	      0.23650799	      7.40365289	     49.61541028	     21.09931309	     73.80673355	    129.86194087	    101.47582650	     63.61799793	     26.44693035	     68.81696043	    120.76110560	     83.07939391
      3.53333330	     -1.35675617	      5.97748889	      5.71962208	     -0.13826557	      0.91873531	      0.14099416	      4.04692390	      0.77555205	      0.32406612	      2.05063739	      0.03579037	      6.54119716	     -0.36681564	     -7.49999987	     11.99798595	      1.52173960	      3.11789772	     15.30938767	      0.26719922	     -2.02584574	     -7.77845966	     -7.49999987	     -1.91702180	      0.14912315	      7.17380535	     49.45907192	     21.21418596	     73.69456752	    130.00130734	    101.35679799	     63.86238429	     26.50883104	     68.78523266	    120.77786621	     83.38299139
      3.55000000	     -1.27268567	      6.02759300	      5.79984631	     -0.13812268	      0.91769825	      0.14084561	      3.97859418	      0.70803681	     -0.00343906	      2.06134303	      0.03597722	      6.67616017	     -0.12458764	     -7.49999987	     11.92647657	      1.57041000	      3.02431534	     15.46531840	      0.26992073	     -1.83453813	     -7.63894509	     -7.49999987	     -2.07492041	      0.08160543	      6.94265210	     49.50668265	     21.28823413	     73.64889070	    130.08315505	     95.94605893	     64.26358054	     26.38046493	     68.69366817	    120.77817430	     79.94692907
      3.56666670	     -1.43714838	      6.00931310	      5.88848890	     -0.13724762	      0.91625126	      0.14104790	      4.12139579	      0.72949654	      0.32154149	      2.07994941	      0.03630197	      6.64194994	     -0.61586910	     -7.49999987	     12.01802224	      1.55587480	      2.95642398	     15.44385744	      0.26954616	     -1.53672666	     -7.65021553	     -7.49999987	     -1.89343419	      0.02284229	      6.84634885	     49.35550761	     21.38537132	     73.36346044	    130.11125623	    101.39616082	     64.48489702	     26.39430261	     68.40945375	    120.60478879	     83.22341648
      3.58333330	     -1.35657816	      6.02031269	      5.99891875	     -0.13613541	      0.91699541	      0.14139069	      3.95548814	      0.73531387	      0.34282702	      2.10517547	      0.03674224	      6.55099796	     -0.88341739	     -7.49999987	     11.82418619	      1.56531244	      3.01446101	     15.26869237	      0.26648895	     -1.21304361	     -7.55546404	     -7.49999987	     -1.85314969	     -0.02555412	      6.74592722	     49.23055052	     21.67970657	     74.31540411	    129.95099097	     93.31541687	     64.54028654	     26.38862146	     68.84810901	    120.91965550	     76.73814662
      3.60000000	     -1.39444480	      6.07875610	      5.97076055	     -0.13665508	      0.92159554	      0.14245644	      4.00149052	      0.70367011	      0.32185820	      2.12669349	      0.03711780	      6.55523550	     -0.70053720	     -7.49999987	     11.59162726	      1.60892011	      3.06974085	     14.99669351	      0.26174168	     -1.29642555	     -7.56064258	     -7.49999987	     -1.68341864	     -0.14828941	      6.92849346	     49.02779802	     21.63408229	     74.93231943	    129.82928081	     93.74375483	     64.04211448	     26.34849866	     69.17812180	    120.97705366	     77.01535076
      3.61666670	     -1.47528930	      6.06406240	      5.88329469	     -0.13828212	      0.91906625	      0.14229483	      4.12263975	      0.74569658	      0.46802854	      2.14942278	      0.03751450	      6.73417703	     -0.59978476	     -7.49999987	     11.55717302	      1.58372262	      3.06262783	     14.68420041	      0.25628765	     -1.45177007	     -7.71742033	     -7.49999987	     -1.67353145	     -0.20702664	      6.92104404	     49.32811627	     21.63961542	     74.72553582	    129.76579188	    101.83154320	     64.20957165	     26.39840456	     69.11633621	    120.92648455	     82.03258831
      3.63333330	     -1.45075404	      6.07445419	      5.85609601	     -0.13917633	      0.91976393	      0.14223948	      4.16888779	      0.74622584	      0.48272483	      2.15858722	      0.03767445	      6.82523205	     -0.35260797	     -7.49999987	     11.44106918	      1.58341339	      2.99165479	     14.59444868	      0.25472118	     -1.43141581	     -7.60528157	     -7.49999987	     -1.73761560	     -0.24518538	      6.70652010	     49.43221881	     21.61011785	     74.96526552	    129.73791633	    101.49434409	     64.22847111	     26.21739013	     69.29778356	    120.96559571	     82.58899003
      3.65000000	     -1.36877624	      6.05599274	      5.82008098	     -0.13931793	      0.92081213	      0.14244448	      4.08513627	      0.77858955	      0.54646119	      2.12953451	      0.03716739	      6.79564542	     -0.16802807	     -7.49999987	     11.16983603	      1.54008298	      2.91293208	     14.27637336	      0.24916972	     -1.40559463	     -7.40512180	     -7.49999987	     -1.86468446	     -0.22786437	      6.50092196	     49.26784162	     21.59187681	     75.07724730	    129.75349135	    101.47200080	     64.23128707	     26.08463283	     69.48737337	    121.02880375	     82.38259163
      3.66666670	     -1.37334885	      6.01389333	      5.91155481	     -0.14021892	      0.92058931	      0.14235171	      4.08134121	      0.82621575	      0.62026544	      2.06095535	      0.03597046	      6.53069932	     -0.33155053	     -7.49999987	     11.05328503	      1.50804522	      2.90962885	     13.91085394	      0.24279020	     -1.52890551	     -7.33341024	     -7.49999987	     -1.95951264	     -0.21005551	      6.64185566	     49.29098763	     21.32514319	     75.19307878	    129.71918794	     99.11847249	     64.24786382	     26.31574014	     69.94371512	    121.21370474	     80.20825275
      3.68333330	     -1.28846456	      5.97412118	      5.98305346	     -0.14050112	      0.92119703	      0.14201915	      4.06521208	      0.86750631	      0.37832924	      2.07359795	      0.03619111	      6.77196745	      0.21571128	     -7.49999987	     10.84546081	      1.49443177	      2.85140361	     13.49138463	      0.23546908	     -1.48265021	     -7.12433166	     -7.49999987	     -2.08922475	     -0.15861496	      6.64190186	     49.06371923	     21.19263148	     75.08124912	    129.86409357	    101.36631294	     64.28436295	     26.34119344	     69.97962246	    121.18370076	     81.77987646
      3.70000000	     -1.19226013	      5.97974727	      6.11010366	     -0.13962042	      0.91984321	      0.14193060	      3.92177693	      0.87652593	      0.36677830	      2.04131177	      0.03562761	      6.91371768	      0.10188997	     -7.49999987	     10.61068193	      1.49956396	      2.69509288	     13.17813088	      0.23000177	     -1.69013953	     -7.02367103	     -7.49999987	     -2.14580944	     -0.15617206	      6.53946769	     48.98934578	     21.25733870	     75.07766659	    129.95028074	    101.22665405	     64.28335922	     26.52157795	     69.97255391	    121.29326274	     82.43771318
      3.71666670	     -1.17914445	      5.96032143	      6.22849565	     -0.14101683	      0.92013517	      0.14257335	      3.96238923	      0.89861921	     -0.06827504	      2.01620366	      0.03518939	      7.32193259	      0.83092619	     -7.49999987	     10.56969340	      1.50312291	      2.67658284	     12.97624743	      0.22647824	     -1.84284417	     -7.12574151	     -7.49999987	     -2.33289025	     -0.11562190	      6.37022765	     49.04656817	     21.23188167	     75.12501611	    130.16842233	     95.44859135	     64.52954388	     26.50903014	     70.21124261	    121.47186892	     77.95636230
      3.73333330	     -1.16492666	      5.91727317	      6.12542059	     -0.14009168	      0.92041938	      0.14254052	      3.95908030	      0.96710444	      0.48921087	      1.93047043	      0.03369307	      7.17125290	      0.23942290	     -7.49999987	     10.48261694	      1.43427071	      2.61493687	     12.77958788	      0.22304589	     -1.94131735	     -7.11305452	     -7.49999987	     -2.45797309	     -0.06739301	      6.39708803	     49.09252173	     21.11882140	     74.18624704	    130.42380249	    101.30939312	     64.56741961	     26.48673993	     69.83147529	    121.34342559	     80.93786525
